<svg width="11" height="10" viewBox="0 0 11 10" fill="none" xmlns="http://www.w3.org/2000/svg">
<path fill-rule="evenodd" clip-rule="evenodd" d="M0.967773 8.72101C1.87577 9.36619 2.95377 9.74194 4.11277 9.74194C7.88677 9.74194 9.95027 6.27919 9.95027 3.27657C9.95027 3.17813 9.94827 3.08082 9.94427 2.98351C10.3453 2.66288 10.6933 2.26294 10.9678 1.80732C10.6003 1.98844 10.2048 2.10994 9.78977 2.16394C10.2133 1.88438 10.5378 1.43776 10.6918 0.907881C10.2953 1.16776 9.85577 1.35676 9.38877 1.45857C9.01477 1.01757 8.48127 0.741943 7.89127 0.741943C6.75827 0.741943 5.83927 1.75838 5.83927 3.01276C5.83927 3.19163 5.85777 3.36432 5.89277 3.53082C4.18777 3.43632 2.67527 2.53182 1.66427 1.15707C1.48777 1.49344 1.38627 1.88269 1.38627 2.29951C1.38627 3.08757 1.74827 3.78338 2.29877 4.19063C1.96227 4.17994 1.64627 4.07701 1.36927 3.90657C1.36927 3.91613 1.36927 3.92569 1.36927 3.93526C1.36927 5.03551 2.07727 5.95463 3.01477 6.16332C2.84327 6.21563 2.66177 6.24263 2.47477 6.24263C2.34227 6.24263 2.21377 6.22913 2.08877 6.20213C2.34927 7.10551 3.10727 7.76251 4.00477 7.77994C3.30277 8.38969 2.41927 8.75194 1.45727 8.75194C1.29177 8.75194 1.12877 8.74294 0.967773 8.72101Z" fill="white"/>
</svg>
