<svg width="11" height="11" viewBox="0 0 11 11" fill="none" xmlns="http://www.w3.org/2000/svg">
<path d="M10.9973 11V10.9995H11V6.71265C11 4.61549 10.5817 3 8.30984 3C7.21772 3 6.48482 3.64678 6.18561 4.25995H6.15402V3.19579H4V10.9995H6.24292V7.1354C6.24292 6.11798 6.42164 5.13418 7.58913 5.13418C8.73947 5.13418 8.75662 6.29526 8.75662 7.20066V11H10.9973Z" fill="white"/>
<path d="M0 4H2V11H0V4Z" fill="white"/>
<path d="M1.5 0C0.671929 0 0 0.668796 0 1.49301C0 2.31722 0.671929 3 1.5 3C2.32807 3 3 2.31722 3 1.49301C2.99948 0.668796 2.32755 0 1.5 0V0Z" fill="white"/>
</svg>
